<?xml version="1.0" encoding="UTF-8" standalone="no"?><!DOCTYPE svg PUBLIC "-//W3C//DTD SVG 1.1//EN" "http://www.w3.org/Graphics/SVG/1.1/DTD/svg11.dtd"><svg width="100%" height="100%" viewBox="0 0 44 59" version="1.1" xmlns="http://www.w3.org/2000/svg" xmlns:xlink="http://www.w3.org/1999/xlink" xml:space="preserve" xmlns:serif="http://www.serif.com/" style="fill-rule:evenodd;clip-rule:evenodd;stroke-linecap:square;"><g><path d="M44,52.46l-44,0l0,-52.46l44,0l0,52.46Zm-38.624,-5.376l33.248,0l0,-41.708l-33.248,0l0,41.708Z" style="fill:#fff;"/><path d="M41.381,51.16l-33.165,5.76l0,-5.76" style="fill:none;stroke:#fff;stroke-width:3.09px;"/><g><path d="M30.787,17.566c-1.931,0 -3.498,-1.566 -3.498,-3.498c0,-0.762 0.246,-1.468 0.66,-2.042c-1.978,-1.443 -4.419,-2.294 -7.071,-2.294c-6.667,0 -11.968,5.368 -11.968,12.035c0,6.666 5.301,11.967 11.968,11.967c6.667,0 12,-5.301 12,-11.967c0,-1.568 -0.295,-3.064 -0.832,-4.435c-0.391,0.15 -0.815,0.234 -1.259,0.234Zm-9.909,10.833c-3.634,0 -6.633,-2.999 -6.633,-6.632c0,-3.667 2.999,-6.701 6.632,-6.701c3.667,0 6.668,3.034 6.668,6.701c0,3.633 -3.002,6.633 -6.668,6.633l0,-0.001l0.001,0Z" style="fill:#fff;fill-rule:nonzero;"/><path d="M30.781,9.76c-2.393,0 -4.296,1.927 -4.296,4.321c0,2.393 1.903,4.296 4.296,4.296c2.394,0 4.309,-1.903 4.309,-4.296c0,-2.394 -1.915,-4.321 -4.309,-4.321Zm-0.001,7.497c-1.737,0 -3.173,-1.435 -3.173,-3.173c0,-1.754 1.436,-3.203 3.173,-3.203c1.753,0 3.189,1.449 3.189,3.203c0,1.738 -1.436,3.173 -3.189,3.173Z" style="fill:#fff;fill-rule:nonzero;"/></g></g></svg>